<?xml version="1.0" encoding="UTF-8" standalone="no"?>
<svg
   viewBox="0 0 48 48"
   version="1.1"
   id="svg5"
   sodipodi:docname="stool.svg"
   xml:space="preserve"
   inkscape:version="1.4.3 (0d15f75042, 2025-12-25)"
   inkscape:export-filename="stool-light.svg"
   inkscape:export-xdpi="96"
   inkscape:export-ydpi="96"
   xmlns:inkscape="http://www.inkscape.org/namespaces/inkscape"
   xmlns:sodipodi="http://sodipodi.sourceforge.net/DTD/sodipodi-0.dtd"
   xmlns="http://www.w3.org/2000/svg"
   xmlns:svg="http://www.w3.org/2000/svg"><defs
     id="defs5" /><sodipodi:namedview
     id="namedview5"
     pagecolor="#ffffff"
     bordercolor="#000000"
     borderopacity="0.25"
     inkscape:showpageshadow="2"
     inkscape:pageopacity="0.0"
     inkscape:pagecheckerboard="0"
     inkscape:deskcolor="#d1d1d1"
     showgrid="false"
     inkscape:zoom="16"
     inkscape:cx="-4.15625"
     inkscape:cy="18.875"
     inkscape:window-width="3440"
     inkscape:window-height="1371"
     inkscape:window-x="0"
     inkscape:window-y="0"
     inkscape:window-maximized="1"
     inkscape:current-layer="svg5" /><!-- Seat (top) --><!-- Legs --><!-- Feet --><g
     id="g11"
     style="display:none"><g
       id="g8"
       style="fill:#800000;fill-opacity:1"><path
         style="fill:#800000;fill-opacity:1;stroke:none;stroke-width:3.77953;stroke-linecap:square;paint-order:stroke fill markers"
         d="m 121.85028,125.92626 c -2.50439,1.28026 -18.57761,1.07678 -22.739666,0 -5.211989,-1.34841 -4.024222,-7.04847 -4.719553,-15.44581 -0.695331,-8.39734 0.224066,-12.376044 4.505028,-34.1095 4.280961,-21.733456 25.099441,-95.249162 25.099441,-95.249162 l 24.02682,6.221229 c 0,0 -3.25504,55.351271 -7.93743,78.516201 -4.68239,23.16493 -12.62146,57.197542 -18.23464,60.067042 z"
         id="path5"
         sodipodi:nodetypes="sszzcczs" /><path
         style="fill:#800000;fill-opacity:1;stroke:none;stroke-width:4.29023;stroke-linecap:square;paint-order:stroke fill markers"
         d="m 205.51998,144.96625 c 2.58456,1.87442 20.6468,4.46095 25.50324,3.98217 6.08154,-0.59957 5.74762,-7.20036 7.998,-16.49647 2.25037,-9.29612 1.916,-13.91936 0.92073,-39.043793 C 238.94668,68.28373 228.47218,-17.812151 228.47218,-17.812151 l -28.03628,2.769724 c 0,0 -6.04249,62.648193 -4.84769,89.448361 1.1948,26.800176 4.13892,66.359096 9.93177,70.560316 z"
         id="path6"
         sodipodi:nodetypes="sszzcczs" /></g><g
       id="g9"
       style="fill:#c03c32;fill-opacity:1"><path
         style="fill:#c03c32;fill-opacity:1;stroke:none;stroke-width:3.81566;stroke-linecap:square;paint-order:stroke fill markers"
         d="m 264.09586,109.9598 c 2.51871,1.31116 18.74662,1.22571 22.95639,0.16975 5.27172,-1.32237 4.11519,-7.08562 4.87983,-15.557787 0.76463,-8.472195 -0.13382,-12.49568 -4.29335,-34.468227 -4.15954,-21.972544 -24.62767,-96.344302 -24.62767,-96.344302 l -24.30224,6.101171 c 0,0 2.87289,55.903102 7.42699,79.323759 4.5541,23.420665 12.31479,57.836886 17.96005,60.775636 z"
         id="path7"
         sodipodi:nodetypes="sszzcczs" /><path
         style="fill:#c03c32;fill-opacity:1;stroke:none;stroke-width:3.67796;stroke-linecap:square;paint-order:stroke fill markers"
         d="m 180.33889,91.272512 c -2.23533,1.626981 -18.20335,4.315813 -22.5354,4.069121 -5.42487,-0.308953 -5.34557,-5.769987 -7.65193,-13.377642 -2.30635,-7.607683 -2.1615,-11.435707 -2.10472,-32.213468 0.0568,-20.777761 6.52961,-92.19481 6.52961,-92.19481 l 31.01585,-0.287269 c 0,0 3.78759,53.264957 3.60868,75.432619 -0.17891,22.16767 -3.85198,54.924828 -8.86209,58.571449 z"
         id="path8"
         sodipodi:nodetypes="sszzcczs" /></g><path
       id="ellipse10"
       style="fill:#800000;fill-opacity:1;stroke:none;stroke-width:6.88472;stroke-linecap:square;paint-order:stroke fill markers"
       d="m 94.816406,-49.269531 c 0.0027,0.179724 0.01914,0.357969 0.04687,0.537109 -0.0057,-0.179582 -0.04532,-0.357353 -0.04687,-0.537109 z m 0.04687,0.537109 c 0.30812,9.689456 6.626569,19.11478 18.208989,27.052734 0.17123,0.117354 0.34406,0.234863 0.51757,0.351563 -0.0185,-0.01427 -0.0306,-0.02869 -0.0488,-0.04297 a 84.628067,16.518312 0 0 0 82.10156,12.589844 84.628067,16.518312 0 0 0 82.10156,-12.589844 c -0.0183,0.01428 -0.0304,0.0287 -0.0488,0.04297 0.17382,-0.116903 0.34605,-0.234003 0.51758,-0.351563 11.58023,-7.936711 17.89731,-17.361058 18.20703,-27.048828 -0.81448,5.24043 -12.31491,10.210522 -32.02344,13.796875 0.59498,0.161809 1.01304,0.342366 1.57618,0.507813 a 84.628067,16.518312 0 0 0 -70.33008,-7.394531 84.628067,16.518312 0 0 0 -70.33985,7.398437 c 0.5665,-0.166518 0.98719,-0.348884 1.58594,-0.511719 -19.71149,-3.586892 -31.213961,-8.55944 -32.025389,-13.800781 z m 201.556639,0.0039 c 0.028,-0.179923 0.0462,-0.360501 0.0488,-0.541015 -0.002,0.181097 -0.043,0.360095 -0.0488,0.541015 z m -175.27344,15.646485 a 84.628067,16.518312 0 0 0 -3.56054,1.410156 c 1.0351,-0.483144 2.29082,-0.946991 3.56054,-1.410156 z m 149,0.0039 c 1.26616,0.46207 2.51811,0.924301 3.55079,1.40625 a 84.628067,16.518312 0 0 0 -3.55079,-1.40625 z m -152.71875,1.472656 a 84.628067,16.518312 0 0 0 -3.1914,1.835938 c 0.89658,-0.62209 1.92704,-1.238251 3.1914,-1.835938 z m 156.42969,0 c 1.26437,0.597687 2.29482,1.213848 3.19141,1.835938 a 84.628067,16.518312 0 0 0 -3.19141,-1.835938 z m -160.10547,2.173828 a 84.628067,16.518312 0 0 0 -1.97265,1.935547 c 0.44951,-0.65416 1.12927,-1.298733 1.97265,-1.935547 z m 163.78125,0 c 0.84339,0.636814 1.52315,1.281387 1.97266,1.935547 a 84.628067,16.518312 0 0 0 -1.97266,-1.935547 z m -165.80664,2.009766 a 84.628067,16.518312 0 0 0 -0.71289,2.121094 c 1.4e-4,-0.712002 0.24816,-1.420632 0.71289,-2.121094 z m 167.83203,0 c 0.46474,0.700462 0.71275,1.409092 0.71289,2.121094 a 84.628067,16.518312 0 0 0 -0.71289,-2.121094 z m 0.71289,2.154297 c -0.0178,0.544405 -0.1824,1.08648 -0.4746,1.626953 a 84.628067,16.518312 0 0 0 0.4746,-1.626953 z m -169.25586,0.0078 a 84.628067,16.518312 0 0 0 0.47657,1.626954 c -0.29316,-0.540023 -0.4574,-1.082987 -0.47657,-1.626954 z m 0.67579,1.972657 a 84.628067,16.518312 0 0 0 1,1.164062 c -0.39708,-0.385998 -0.74533,-0.773769 -1,-1.164062 z m 167.90039,0.0039 c -0.25431,0.38908 -0.60222,0.775347 -0.99805,1.160156 a 84.628067,16.518312 0 0 0 0.99805,-1.160156 z" /><ellipse
       style="fill:#c03c32;fill-opacity:1;stroke:none;stroke-width:4.38897;stroke-linecap:square;paint-order:stroke fill markers"
       id="ellipse9"
       cx="195.64267"
       cy="-49.326797"
       rx="100.82682"
       ry="19.680101" /></g><g
     id="g15"
     style="display:inline"
     transform="matrix(0.20385148,0,0,0.20385148,-15.817386,15.845986)"
     inkscape:export-filename="stool-light.svg"
     inkscape:export-xdpi="96"
     inkscape:export-ydpi="96"><g
       id="g12"
       style="fill:#800000;fill-opacity:1"><path
         style="fill:#800000;fill-opacity:1;stroke:none;stroke-width:3.77953;stroke-linecap:square;paint-order:stroke fill markers"
         d="m 121.85028,125.92626 c -2.50439,1.28026 -18.57761,1.07678 -22.739666,0 -5.211989,-1.34841 -4.024222,-7.04847 -4.719553,-15.44581 -0.695331,-8.39734 0.224066,-12.376044 4.505028,-34.1095 4.280961,-21.733456 25.099441,-95.249162 25.099441,-95.249162 l 24.02682,6.221229 c 0,0 -3.25504,55.351271 -7.93743,78.516201 -4.68239,23.16493 -12.62146,57.197542 -18.23464,60.067042 z"
         id="path11"
         sodipodi:nodetypes="sszzcczs" /><path
         style="fill:#800000;fill-opacity:1;stroke:none;stroke-width:4.29023;stroke-linecap:square;paint-order:stroke fill markers"
         d="m 205.51998,144.96625 c 2.58456,1.87442 20.6468,4.46095 25.50324,3.98217 6.08154,-0.59957 5.74762,-7.20036 7.998,-16.49647 2.25037,-9.29612 1.916,-13.91936 0.92073,-39.043793 C 238.94668,68.28373 228.47218,-17.812151 228.47218,-17.812151 l -28.03628,2.769724 c 0,0 -6.04249,62.648193 -4.84769,89.448361 1.1948,26.800176 4.13892,66.359096 9.93177,70.560316 z"
         id="path12"
         sodipodi:nodetypes="sszzcczs" /></g><g
       id="g14"
       style="fill:#c03c32;fill-opacity:1"><path
         style="fill:#c03c32;fill-opacity:1;stroke:none;stroke-width:3.81566;stroke-linecap:square;paint-order:stroke fill markers"
         d="m 264.09586,109.9598 c 2.51871,1.31116 18.74662,1.22571 22.95639,0.16975 5.27172,-1.32237 4.11519,-7.08562 4.87983,-15.557787 0.76463,-8.472195 -0.13382,-12.49568 -4.29335,-34.468227 -4.15954,-21.972544 -24.62767,-96.344302 -24.62767,-96.344302 l -24.30224,6.101171 c 0,0 2.87289,55.903102 7.42699,79.323759 4.5541,23.420665 12.31479,57.836886 17.96005,60.775636 z"
         id="path13"
         sodipodi:nodetypes="sszzcczs" /><path
         style="fill:#c03c32;fill-opacity:1;stroke:none;stroke-width:3.67796;stroke-linecap:square;paint-order:stroke fill markers"
         d="m 180.33889,91.272512 c -2.23533,1.626981 -18.20335,4.315813 -22.5354,4.069121 -5.42487,-0.308953 -5.34557,-5.769987 -7.65193,-13.377642 -2.30635,-7.607683 -2.1615,-11.435707 -2.10472,-32.213468 0.0568,-20.777761 6.52961,-92.19481 6.52961,-92.19481 l 31.01585,-0.287269 c 0,0 3.78759,53.264957 3.60868,75.432619 -0.17891,22.16767 -3.85198,54.924828 -8.86209,58.571449 z"
         id="path14"
         sodipodi:nodetypes="sszzcczs" /></g><path
       id="path15"
       style="fill:#800000;fill-opacity:1;stroke:none;stroke-width:6.88472;stroke-linecap:square;paint-order:stroke fill markers"
       d="m 94.816406,-49.269531 c 0.0027,0.179724 0.01914,0.357969 0.04687,0.537109 -0.0057,-0.179582 -0.04532,-0.357353 -0.04687,-0.537109 z m 0.04687,0.537109 c 0.30812,9.689456 6.626574,19.11478 18.208994,27.052734 0.17122,0.117354 0.34406,0.234863 0.51757,0.351563 -0.0185,-0.01427 -0.0306,-0.02869 -0.0488,-0.04297 a 84.628067,16.518312 0 0 0 82.10156,12.589844 84.628067,16.518312 0 0 0 82.10156,-12.589844 c -0.0183,0.01428 -0.0304,0.0287 -0.0488,0.04297 0.17382,-0.116903 0.34605,-0.234003 0.51759,-0.351563 11.58023,-7.936711 17.89731,-17.361058 18.20702,-27.048828 -0.81448,5.24043 -12.31491,10.210522 -32.02344,13.796875 0.59499,0.161809 1.01304,0.342366 1.57619,0.507813 a 84.628067,16.518312 0 0 0 -70.33009,-7.394531 84.628067,16.518312 0 0 0 -70.33984,7.398437 c 0.5665,-0.166518 0.98719,-0.348884 1.58594,-0.511719 -19.71149,-3.586892 -31.213966,-8.55944 -32.025394,-13.800781 z m 201.556634,0.0039 c 0.028,-0.179923 0.0462,-0.360501 0.0488,-0.541015 -0.002,0.181097 -0.043,0.360095 -0.0488,0.541015 z m -175.27343,15.646485 a 84.628067,16.518312 0 0 0 -3.56054,1.410156 c 1.0351,-0.483144 2.29082,-0.946991 3.56054,-1.410156 z m 148.99999,0.0039 c 1.26617,0.46207 2.51811,0.924301 3.5508,1.40625 a 84.628067,16.518312 0 0 0 -3.5508,-1.40625 z m -152.71874,1.472656 a 84.628067,16.518312 0 0 0 -3.1914,1.835938 c 0.89658,-0.62209 1.92704,-1.238251 3.1914,-1.835938 z m 156.42968,0 c 1.26437,0.597687 2.29483,1.213848 3.19142,1.835938 a 84.628067,16.518312 0 0 0 -3.19142,-1.835938 z m -160.10546,2.173828 a 84.628067,16.518312 0 0 0 -1.97265,1.935547 c 0.44951,-0.65416 1.12927,-1.298733 1.97265,-1.935547 z m 163.78124,0 c 0.84339,0.636814 1.52315,1.281387 1.97266,1.935547 a 84.628067,16.518312 0 0 0 -1.97266,-1.935547 z m -165.80664,2.009766 a 84.628067,16.518312 0 0 0 -0.71289,2.121094 c 1.4e-4,-0.712002 0.24816,-1.420632 0.71289,-2.121094 z m 167.83203,0 c 0.46474,0.700462 0.71276,1.409092 0.71289,2.121094 a 84.628067,16.518312 0 0 0 -0.71289,-2.121094 z m 0.71289,2.154297 c -0.0178,0.544405 -0.18239,1.08648 -0.4746,1.626953 a 84.628067,16.518312 0 0 0 0.4746,-1.626953 z m -169.25586,0.0078 a 84.628067,16.518312 0 0 0 0.47657,1.626954 c -0.29316,-0.540023 -0.4574,-1.082987 -0.47657,-1.626954 z m 0.6758,1.972657 a 84.628067,16.518312 0 0 0 1,1.164062 c -0.39708,-0.385998 -0.74533,-0.773769 -1,-1.164062 z m 167.90038,0.0039 c -0.2543,0.38908 -0.60222,0.775347 -0.99804,1.160156 a 84.628067,16.518312 0 0 0 0.99804,-1.160156 z" /><ellipse
       style="fill:#c03c32;fill-opacity:1;stroke:none;stroke-width:4.38897;stroke-linecap:square;paint-order:stroke fill markers"
       id="ellipse15"
       cx="195.64267"
       cy="-49.326797"
       rx="100.82682"
       ry="19.680101" /></g><path
     id="path16"
     style="fill:none;fill-opacity:1;stroke:#ffffff;stroke-width:0.371;stroke-linecap:square;stroke-dasharray:none;stroke-opacity:1;paint-order:stroke fill markers"
     d="m 24.063946,1.7781817 c -11.350919,1.04e-4 -20.5524543,1.796165 -20.5527343,4.011719 4.3e-5,0.04102 0.0033,0.08204 0.0098,0.123047 0.0714,0.453636 0.07134,0.453781 0,0 0.06374,1.974397 1.350764,3.894186 3.710937,5.5117183 0.0349,0.02392 0.0701,0.04848 0.105469,0.07227 0.41941,0.330416 1.093083,0.646509 1.998047,0.9375 -0.704375,2.499856 -4.210166,14.998454 -4.994141,18.978515 -0.87268,4.430397 -1.059713,5.241316 -0.917969,6.953126 0.141744,1.711809 -0.09958,2.873562 0.962891,3.148437 0.848441,0.219504 4.124242,0.260983 4.634766,0 1.1442543,-0.584951 2.7622843,-7.521936 3.7167963,-12.244141 0.879182,-4.349528 1.513091,-14.264683 1.607422,-15.802734 0.262837,0.03464 0.530517,0.06785 0.802735,0.09961 -0.364624,4.470388 -0.780644,10.054896 -0.78711,12.419922 -0.01157,4.235577 -0.04046,5.015569 0.429688,6.566407 0.470155,1.550831 0.454678,2.663582 1.560546,2.726562 0.883095,0.05029 4.138074,-0.498416 4.59375,-0.830078 1.021318,-0.743369 1.770171,-7.420541 1.806641,-11.939453 0.01657,-2.052952 -0.133748,-5.413526 -0.302734,-8.470703 0.536864,0.01013 1.075867,0.01535 1.615234,0.01563 0.286663,-5.59e-4 0.573211,-0.0025 0.859375,-0.0059 -0.301655,3.365778 -1.067859,12.549318 -0.871094,16.962891 0.243562,5.463255 0.84451,13.52834 2.025391,14.384766 0.526866,0.382103 4.209227,0.908146 5.199219,0.810546 1.239731,-0.122223 1.172116,-1.468255 1.630859,-3.363281 0.458742,-1.895028 0.390387,-2.837331 0.1875,-7.958984 -0.166005,-4.190597 -1.627132,-16.700921 -2.152344,-21.111328 0.736855,-0.06311 1.450185,-0.136205 2.134766,-0.21875 0.253144,3.758296 0.698962,9.331879 1.279297,12.316406 0.92836,4.774337 2.511314,11.789603 3.662109,12.388672 0.513443,0.267282 3.82152,0.250419 4.679688,0.03516 1.074648,-0.269567 0.838267,-1.444811 0.99414,-3.171875 0.155871,-1.72707 -0.02707,-2.548208 -0.875,-7.027344 -0.570979,-3.016164 -2.650448,-10.875026 -3.947265,-15.6875 0.87285,-0.286318 1.523163,-0.596336 1.929687,-0.919922 0.03192,-0.02151 0.06414,-0.04282 0.0957,-0.06445 2.358905,-1.6167163 3.646043,-3.5364363 3.710938,-5.5097653 -0.191925,0.599055 -0.02903,0.309601 0.01172,-0.125 -2.8e-4,-2.215703 -9.203006,-4.011826 -20.554688,-4.011719 z m 17.45247,9.1977943 c -0.01599,0.05049 -0.59246,0.400229 -0.61968,0.450574 0.02804,-0.05068 0.868927,-0.326236 0.885157,-0.377109 0.04505,-0.144818 -0.219747,-0.217911 -0.265477,-0.07347 z"
     sodipodi:nodetypes="ccccsccssssscccsssscccsssssccsscssccccccccccsc"
     inkscape:export-filename="stool-light.svg"
     inkscape:export-xdpi="96"
     inkscape:export-ydpi="96" /></svg>
